<svg width="40" height="40" viewBox="0 0 40 40" fill="none" xmlns="http://www.w3.org/2000/svg">
<g id="icon/more-vertical">
<path id="Vector" d="M19.9999 21.6667C20.9204 21.6667 21.6666 20.9205 21.6666 20C21.6666 19.0796 20.9204 18.3334 19.9999 18.3334C19.0794 18.3334 18.3333 19.0796 18.3333 20C18.3333 20.9205 19.0794 21.6667 19.9999 21.6667Z" stroke="black" stroke-width="2" stroke-linecap="round" stroke-linejoin="round"/>
<path id="Vector_2" d="M19.9999 9.99996C20.9204 9.99996 21.6666 9.25377 21.6666 8.33329C21.6666 7.41282 20.9204 6.66663 19.9999 6.66663C19.0794 6.66663 18.3333 7.41282 18.3333 8.33329C18.3333 9.25377 19.0794 9.99996 19.9999 9.99996Z" stroke="black" stroke-width="2" stroke-linecap="round" stroke-linejoin="round"/>
<path id="Vector_3" d="M19.9999 33.3333C20.9204 33.3333 21.6666 32.5871 21.6666 31.6667C21.6666 30.7462 20.9204 30 19.9999 30C19.0794 30 18.3333 30.7462 18.3333 31.6667C18.3333 32.5871 19.0794 33.3333 19.9999 33.3333Z" stroke="black" stroke-width="2" stroke-linecap="round" stroke-linejoin="round"/>
</g>
</svg>
